<svg xmlns="http://www.w3.org/2000/svg" width="160" height="160" viewBox="0 0 160 160" role="img" aria-labelledby="traveler-avatar-title">
  <title id="traveler-avatar-title">Traveler Avatar</title>
  <defs>
    <linearGradient id="traveler-sky-gradient" x1="0%" y1="0%" x2="100%" y2="100%">
      <stop offset="0%" stop-color="#4ddbd3" />
      <stop offset="100%" stop-color="#6d71f9" />
    </linearGradient>
  </defs>
  <circle cx="80" cy="80" r="78" fill="url(#traveler-sky-gradient)" stroke="#ffffff" stroke-width="4" />
  <circle cx="80" cy="62" r="30" fill="#ffe4d4" />
  <path d="M80 92c-24 0-44 16-48 42 0 0 22 12 48 12s48-12 48-12c-4-26-24-42-48-42z" fill="#ffffff" opacity="0.9" />
  <path d="M64 48c0-8 6-14 16-14s16 6 16 14-6 8-16 8-16 0-16-8z" fill="#f9c6a5" />
  <path d="M52 120l56 0-4 16H56z" fill="#ff6b3d" opacity="0.85" />
</svg>

